<mxfile host="Electron" modified="2024-02-25T08:41:30.674Z" agent="Mozilla/5.0 (Macintosh; Intel Mac OS X 10_15_7) AppleWebKit/537.36 (KHTML, like Gecko) draw.io/23.1.5 Chrome/120.0.6099.109 Electron/28.1.0 Safari/537.36" etag="ItQg-4CHpyOBsI3Np0KX" version="23.1.5" type="device">
  <diagram id="C5RBs43oDa-KdzZeNtuy" name="Page-1">
    <mxGraphModel dx="1114" dy="1949" grid="0" gridSize="10" guides="1" tooltips="1" connect="1" arrows="1" fold="1" page="1" pageScale="1" pageWidth="827" pageHeight="1169" math="0" shadow="0">
      <root>
        <mxCell id="WIyWlLk6GJQsqaUBKTNV-0" />
        <mxCell id="WIyWlLk6GJQsqaUBKTNV-1" parent="WIyWlLk6GJQsqaUBKTNV-0" />
        <mxCell id="5T-tb7UuQwm3oBfK2JVE-2" value="Home" style="shape=umlFrame;whiteSpace=wrap;html=1;pointerEvents=0;width=83;height=22;fontFamily=Times New Roman;movable=1;resizable=1;rotatable=1;deletable=1;editable=1;locked=0;connectable=1;" vertex="1" parent="WIyWlLk6GJQsqaUBKTNV-1">
          <mxGeometry x="10" y="-718" width="751" height="416" as="geometry" />
        </mxCell>
        <mxCell id="5T-tb7UuQwm3oBfK2JVE-8" value="" style="group;fontFamily=Times New Roman;movable=1;resizable=1;rotatable=1;deletable=1;editable=1;locked=0;connectable=1;" vertex="1" connectable="0" parent="WIyWlLk6GJQsqaUBKTNV-1">
          <mxGeometry x="300" y="-843" width="192" height="93" as="geometry" />
        </mxCell>
        <mxCell id="5T-tb7UuQwm3oBfK2JVE-0" value="AddEmployee" style="shape=umlFrame;whiteSpace=wrap;html=1;pointerEvents=0;width=100;height=23;fontFamily=Times New Roman;movable=1;resizable=1;rotatable=1;deletable=1;editable=1;locked=0;connectable=1;" vertex="1" parent="5T-tb7UuQwm3oBfK2JVE-8">
          <mxGeometry width="192" height="93" as="geometry" />
        </mxCell>
        <mxCell id="5T-tb7UuQwm3oBfK2JVE-4" value="Save" style="html=1;whiteSpace=wrap;fontFamily=Times New Roman;movable=1;resizable=1;rotatable=1;deletable=1;editable=1;locked=0;connectable=1;" vertex="1" parent="5T-tb7UuQwm3oBfK2JVE-8">
          <mxGeometry x="131.0608695652174" y="66.31304347826087" width="44.243478260869566" height="16.982608695652175" as="geometry" />
        </mxCell>
        <mxCell id="5T-tb7UuQwm3oBfK2JVE-6" value="Fields for User Input" style="text;html=1;align=center;verticalAlign=middle;resizable=1;points=[];autosize=1;strokeColor=none;fillColor=none;fontFamily=Times New Roman;movable=1;rotatable=1;deletable=1;editable=1;locked=0;connectable=1;" vertex="1" parent="5T-tb7UuQwm3oBfK2JVE-8">
          <mxGeometry x="14.191304347826087" y="30.7304347826087" width="98.50434782608696" height="25.72340425531915" as="geometry" />
        </mxCell>
        <mxCell id="5T-tb7UuQwm3oBfK2JVE-7" value="Cancel" style="html=1;whiteSpace=wrap;fontFamily=Times New Roman;movable=1;resizable=1;rotatable=1;deletable=1;editable=1;locked=0;connectable=1;" vertex="1" parent="5T-tb7UuQwm3oBfK2JVE-8">
          <mxGeometry x="77.63478260869564" y="66.31304347826087" width="44.243478260869566" height="16.982608695652175" as="geometry" />
        </mxCell>
        <mxCell id="5T-tb7UuQwm3oBfK2JVE-13" value="4" style="swimlane;startSize=20;horizontal=1;containerType=tree;fontFamily=Times New Roman;movable=1;resizable=1;rotatable=1;deletable=1;editable=1;locked=0;connectable=1;" vertex="1" parent="WIyWlLk6GJQsqaUBKTNV-1">
          <mxGeometry x="16" y="-684" width="221" height="293" as="geometry" />
        </mxCell>
        <mxCell id="5T-tb7UuQwm3oBfK2JVE-14" value="" style="edgeStyle=elbowEdgeStyle;elbow=vertical;sourcePerimeterSpacing=0;targetPerimeterSpacing=0;startArrow=none;endArrow=none;rounded=0;curved=0;fontFamily=Times New Roman;entryX=0;entryY=0.5;entryDx=0;entryDy=0;movable=1;resizable=1;rotatable=1;deletable=1;editable=1;locked=0;connectable=1;" edge="1" parent="5T-tb7UuQwm3oBfK2JVE-13" source="5T-tb7UuQwm3oBfK2JVE-15" target="5T-tb7UuQwm3oBfK2JVE-16">
          <mxGeometry relative="1" as="geometry">
            <Array as="points">
              <mxPoint x="87" y="125" />
            </Array>
          </mxGeometry>
        </mxCell>
        <mxCell id="5T-tb7UuQwm3oBfK2JVE-15" value="Records" style="whiteSpace=wrap;html=1;treeFolding=1;treeMoving=1;newEdgeStyle={&quot;edgeStyle&quot;:&quot;elbowEdgeStyle&quot;,&quot;startArrow&quot;:&quot;none&quot;,&quot;endArrow&quot;:&quot;none&quot;};fontFamily=Times New Roman;movable=1;resizable=1;rotatable=1;deletable=1;editable=1;locked=0;connectable=1;" vertex="1" parent="5T-tb7UuQwm3oBfK2JVE-13">
          <mxGeometry x="58" y="83" width="56" height="21" as="geometry" />
        </mxCell>
        <mxCell id="5T-tb7UuQwm3oBfK2JVE-16" value="Employee Records" style="whiteSpace=wrap;html=1;treeFolding=1;treeMoving=1;newEdgeStyle={&quot;edgeStyle&quot;:&quot;elbowEdgeStyle&quot;,&quot;startArrow&quot;:&quot;none&quot;,&quot;endArrow&quot;:&quot;none&quot;};fontFamily=Times New Roman;movable=1;resizable=1;rotatable=1;deletable=1;editable=1;locked=0;connectable=1;" vertex="1" parent="5T-tb7UuQwm3oBfK2JVE-13">
          <mxGeometry x="104" y="114" width="93" height="22" as="geometry" />
        </mxCell>
        <mxCell id="5T-tb7UuQwm3oBfK2JVE-23" value="Supplier Records" style="whiteSpace=wrap;html=1;treeFolding=1;treeMoving=1;newEdgeStyle={&quot;edgeStyle&quot;:&quot;elbowEdgeStyle&quot;,&quot;startArrow&quot;:&quot;none&quot;,&quot;endArrow&quot;:&quot;none&quot;};fontFamily=Times New Roman;movable=1;resizable=1;rotatable=1;deletable=1;editable=1;locked=0;connectable=1;" vertex="1" parent="5T-tb7UuQwm3oBfK2JVE-13">
          <mxGeometry x="104" y="146" width="93" height="22" as="geometry" />
        </mxCell>
        <mxCell id="5T-tb7UuQwm3oBfK2JVE-24" value="" style="edgeStyle=elbowEdgeStyle;elbow=vertical;sourcePerimeterSpacing=0;targetPerimeterSpacing=0;startArrow=none;endArrow=none;rounded=0;curved=0;fontFamily=Times New Roman;entryX=0;entryY=0.5;entryDx=0;entryDy=0;movable=1;resizable=1;rotatable=1;deletable=1;editable=1;locked=0;connectable=1;" edge="1" parent="5T-tb7UuQwm3oBfK2JVE-13" source="5T-tb7UuQwm3oBfK2JVE-15" target="5T-tb7UuQwm3oBfK2JVE-23">
          <mxGeometry relative="1" as="geometry">
            <mxPoint x="87" y="91" as="sourcePoint" />
            <mxPoint x="114" y="130" as="targetPoint" />
            <Array as="points">
              <mxPoint x="87" y="157" />
            </Array>
          </mxGeometry>
        </mxCell>
        <mxCell id="5T-tb7UuQwm3oBfK2JVE-25" value="Client Records" style="whiteSpace=wrap;html=1;treeFolding=1;treeMoving=1;newEdgeStyle={&quot;edgeStyle&quot;:&quot;elbowEdgeStyle&quot;,&quot;startArrow&quot;:&quot;none&quot;,&quot;endArrow&quot;:&quot;none&quot;};fontFamily=Times New Roman;movable=1;resizable=1;rotatable=1;deletable=1;editable=1;locked=0;connectable=1;" vertex="1" parent="5T-tb7UuQwm3oBfK2JVE-13">
          <mxGeometry x="104" y="176" width="93" height="22" as="geometry" />
        </mxCell>
        <mxCell id="5T-tb7UuQwm3oBfK2JVE-26" value="" style="edgeStyle=elbowEdgeStyle;elbow=vertical;sourcePerimeterSpacing=0;targetPerimeterSpacing=0;startArrow=none;endArrow=none;rounded=0;curved=0;fontFamily=Times New Roman;entryX=0;entryY=0.5;entryDx=0;entryDy=0;movable=1;resizable=1;rotatable=1;deletable=1;editable=1;locked=0;connectable=1;" edge="1" parent="5T-tb7UuQwm3oBfK2JVE-13" source="5T-tb7UuQwm3oBfK2JVE-15" target="5T-tb7UuQwm3oBfK2JVE-25">
          <mxGeometry relative="1" as="geometry">
            <mxPoint x="87" y="91" as="sourcePoint" />
            <mxPoint x="114" y="175" as="targetPoint" />
            <Array as="points">
              <mxPoint x="87" y="188" />
            </Array>
          </mxGeometry>
        </mxCell>
        <mxCell id="5T-tb7UuQwm3oBfK2JVE-27" value="Branch Records" style="whiteSpace=wrap;html=1;treeFolding=1;treeMoving=1;newEdgeStyle={&quot;edgeStyle&quot;:&quot;elbowEdgeStyle&quot;,&quot;startArrow&quot;:&quot;none&quot;,&quot;endArrow&quot;:&quot;none&quot;};fontFamily=Times New Roman;movable=1;resizable=1;rotatable=1;deletable=1;editable=1;locked=0;connectable=1;" vertex="1" parent="5T-tb7UuQwm3oBfK2JVE-13">
          <mxGeometry x="104" y="208" width="93" height="22" as="geometry" />
        </mxCell>
        <mxCell id="5T-tb7UuQwm3oBfK2JVE-28" value="" style="edgeStyle=elbowEdgeStyle;elbow=vertical;sourcePerimeterSpacing=0;targetPerimeterSpacing=0;startArrow=none;endArrow=none;rounded=0;curved=0;fontFamily=Times New Roman;entryX=0;entryY=0.5;entryDx=0;entryDy=0;movable=1;resizable=1;rotatable=1;deletable=1;editable=1;locked=0;connectable=1;" edge="1" parent="5T-tb7UuQwm3oBfK2JVE-13" source="5T-tb7UuQwm3oBfK2JVE-15" target="5T-tb7UuQwm3oBfK2JVE-27">
          <mxGeometry relative="1" as="geometry">
            <mxPoint x="87" y="91" as="sourcePoint" />
            <mxPoint x="114" y="216" as="targetPoint" />
            <Array as="points">
              <mxPoint x="87" y="221" />
            </Array>
          </mxGeometry>
        </mxCell>
        <mxCell id="5T-tb7UuQwm3oBfK2JVE-32" style="edgeStyle=elbowEdgeStyle;rounded=0;orthogonalLoop=1;jettySize=auto;html=1;startArrow=none;endArrow=none;entryX=0;entryY=0.5;entryDx=0;entryDy=0;exitX=0.5;exitY=1;exitDx=0;exitDy=0;movable=1;resizable=1;rotatable=1;deletable=1;editable=1;locked=0;connectable=1;" edge="1" parent="5T-tb7UuQwm3oBfK2JVE-13" source="5T-tb7UuQwm3oBfK2JVE-29" target="5T-tb7UuQwm3oBfK2JVE-15">
          <mxGeometry relative="1" as="geometry">
            <Array as="points">
              <mxPoint x="45" y="73" />
            </Array>
          </mxGeometry>
        </mxCell>
        <mxCell id="5T-tb7UuQwm3oBfK2JVE-29" value="Home(root)" style="whiteSpace=wrap;html=1;treeFolding=1;treeMoving=1;newEdgeStyle={&quot;edgeStyle&quot;:&quot;elbowEdgeStyle&quot;,&quot;startArrow&quot;:&quot;none&quot;,&quot;endArrow&quot;:&quot;none&quot;};fontFamily=Times New Roman;movable=1;resizable=1;rotatable=1;deletable=1;editable=1;locked=0;connectable=1;" vertex="1" parent="5T-tb7UuQwm3oBfK2JVE-13">
          <mxGeometry x="8" y="41" width="77" height="21" as="geometry" />
        </mxCell>
        <mxCell id="5T-tb7UuQwm3oBfK2JVE-36" value="Settings" style="whiteSpace=wrap;html=1;treeFolding=1;treeMoving=1;newEdgeStyle={&quot;edgeStyle&quot;:&quot;elbowEdgeStyle&quot;,&quot;startArrow&quot;:&quot;none&quot;,&quot;endArrow&quot;:&quot;none&quot;};fontFamily=Times New Roman;movable=1;resizable=1;rotatable=1;deletable=1;editable=1;locked=0;connectable=1;" vertex="1" parent="5T-tb7UuQwm3oBfK2JVE-13">
          <mxGeometry x="51" y="235" width="56" height="21" as="geometry" />
        </mxCell>
        <mxCell id="5T-tb7UuQwm3oBfK2JVE-37" style="edgeStyle=elbowEdgeStyle;rounded=0;orthogonalLoop=1;jettySize=auto;html=1;startArrow=none;endArrow=none;entryX=0;entryY=0.5;entryDx=0;entryDy=0;exitX=0.5;exitY=1;exitDx=0;exitDy=0;movable=1;resizable=1;rotatable=1;deletable=1;editable=1;locked=0;connectable=1;" edge="1" parent="5T-tb7UuQwm3oBfK2JVE-13" source="5T-tb7UuQwm3oBfK2JVE-29" target="5T-tb7UuQwm3oBfK2JVE-36">
          <mxGeometry relative="1" as="geometry">
            <mxPoint x="47" y="56" as="sourcePoint" />
            <mxPoint x="58" y="94" as="targetPoint" />
            <Array as="points">
              <mxPoint x="45" y="73" />
            </Array>
          </mxGeometry>
        </mxCell>
        <mxCell id="5T-tb7UuQwm3oBfK2JVE-47" style="edgeStyle=elbowEdgeStyle;rounded=0;orthogonalLoop=1;jettySize=auto;html=1;startArrow=none;endArrow=none;entryX=0;entryY=0.5;entryDx=0;entryDy=0;exitX=0.5;exitY=1;exitDx=0;exitDy=0;movable=1;resizable=1;rotatable=1;deletable=1;editable=1;locked=0;connectable=1;" edge="1" target="5T-tb7UuQwm3oBfK2JVE-48" source="5T-tb7UuQwm3oBfK2JVE-36" parent="5T-tb7UuQwm3oBfK2JVE-13">
          <mxGeometry relative="1" as="geometry">
            <mxPoint x="159" y="61" as="sourcePoint" />
            <mxPoint x="170" y="99" as="targetPoint" />
            <Array as="points">
              <mxPoint x="79" y="268" />
            </Array>
          </mxGeometry>
        </mxCell>
        <mxCell id="5T-tb7UuQwm3oBfK2JVE-48" value="Account Settings" style="whiteSpace=wrap;html=1;treeFolding=1;treeMoving=1;newEdgeStyle={&quot;edgeStyle&quot;:&quot;elbowEdgeStyle&quot;,&quot;startArrow&quot;:&quot;none&quot;,&quot;endArrow&quot;:&quot;none&quot;};fontFamily=Times New Roman;movable=1;resizable=1;rotatable=1;deletable=1;editable=1;locked=0;connectable=1;" vertex="1" parent="5T-tb7UuQwm3oBfK2JVE-13">
          <mxGeometry x="104" y="265" width="89" height="21" as="geometry" />
        </mxCell>
        <mxCell id="5T-tb7UuQwm3oBfK2JVE-83" value="&lt;b&gt;&lt;font face=&quot;Times New Roman&quot;&gt;ActionPerformed&lt;/font&gt;&lt;/b&gt;" style="text;html=1;align=center;verticalAlign=middle;resizable=0;points=[];autosize=1;strokeColor=none;fillColor=none;" vertex="1" parent="5T-tb7UuQwm3oBfK2JVE-13">
          <mxGeometry x="118" y="80.5" width="107" height="26" as="geometry" />
        </mxCell>
        <mxCell id="5T-tb7UuQwm3oBfK2JVE-52" value="&lt;font face=&quot;Times New Roman&quot;&gt;Search&lt;/font&gt;" style="shape=mxgraph.uml25.actionParams;html=1;align=center;verticalAlign=top;absoluteArcSize=1;arcSize=10;dashed=0;spacingLeft=10;spacingTop=5;whiteSpace=wrap;" vertex="1" parent="WIyWlLk6GJQsqaUBKTNV-1">
          <mxGeometry x="603" y="-710" width="138" height="26" as="geometry" />
        </mxCell>
        <mxCell id="5T-tb7UuQwm3oBfK2JVE-67" style="edgeStyle=orthogonalEdgeStyle;rounded=0;orthogonalLoop=1;jettySize=auto;html=1;entryX=0;entryY=0.083;entryDx=0;entryDy=0;entryPerimeter=0;exitX=0.5;exitY=0;exitDx=0;exitDy=0;" edge="1" parent="WIyWlLk6GJQsqaUBKTNV-1" source="5T-tb7UuQwm3oBfK2JVE-49" target="5T-tb7UuQwm3oBfK2JVE-8">
          <mxGeometry relative="1" as="geometry">
            <Array as="points">
              <mxPoint x="523" y="-661" />
              <mxPoint x="517" y="-661" />
              <mxPoint x="517" y="-733" />
              <mxPoint x="279" y="-733" />
              <mxPoint x="279" y="-835" />
            </Array>
          </mxGeometry>
        </mxCell>
        <mxCell id="5T-tb7UuQwm3oBfK2JVE-69" style="edgeStyle=elbowEdgeStyle;rounded=0;orthogonalLoop=1;jettySize=auto;html=1;startArrow=none;endArrow=classic;endFill=1;entryX=0.001;entryY=0.044;entryDx=0;entryDy=0;entryPerimeter=0;" edge="1" parent="WIyWlLk6GJQsqaUBKTNV-1" source="5T-tb7UuQwm3oBfK2JVE-16" target="5T-tb7UuQwm3oBfK2JVE-10">
          <mxGeometry relative="1" as="geometry">
            <mxPoint x="275" y="-681" as="targetPoint" />
            <Array as="points">
              <mxPoint x="260" y="-626" />
            </Array>
          </mxGeometry>
        </mxCell>
        <mxCell id="5T-tb7UuQwm3oBfK2JVE-72" style="edgeStyle=elbowEdgeStyle;rounded=0;orthogonalLoop=1;jettySize=auto;html=1;startArrow=none;endArrow=none;entryX=0.01;entryY=0.082;entryDx=0;entryDy=0;entryPerimeter=0;" edge="1" parent="WIyWlLk6GJQsqaUBKTNV-1" source="5T-tb7UuQwm3oBfK2JVE-23" target="5T-tb7UuQwm3oBfK2JVE-63">
          <mxGeometry relative="1" as="geometry">
            <Array as="points">
              <mxPoint x="276" y="-541" />
            </Array>
          </mxGeometry>
        </mxCell>
        <mxCell id="5T-tb7UuQwm3oBfK2JVE-75" style="edgeStyle=elbowEdgeStyle;rounded=0;orthogonalLoop=1;jettySize=auto;html=1;startArrow=none;endArrow=none;" edge="1" parent="WIyWlLk6GJQsqaUBKTNV-1" source="5T-tb7UuQwm3oBfK2JVE-25" target="5T-tb7UuQwm3oBfK2JVE-2">
          <mxGeometry relative="1" as="geometry" />
        </mxCell>
        <mxCell id="5T-tb7UuQwm3oBfK2JVE-77" value="" style="group" vertex="1" connectable="0" parent="WIyWlLk6GJQsqaUBKTNV-1">
          <mxGeometry x="311" y="-567" width="175" height="98" as="geometry" />
        </mxCell>
        <mxCell id="5T-tb7UuQwm3oBfK2JVE-63" value="SupplierRecords (Panel)" style="shape=umlFrame;whiteSpace=wrap;html=1;pointerEvents=0;width=132;height=16;fontFamily=Times New Roman;movable=1;resizable=1;rotatable=1;deletable=1;editable=1;locked=0;connectable=1;" vertex="1" parent="5T-tb7UuQwm3oBfK2JVE-77">
          <mxGeometry width="175" height="98" as="geometry" />
        </mxCell>
        <mxCell id="5T-tb7UuQwm3oBfK2JVE-64" value="&lt;div style=&quot;box-sizing:border-box;width:100%;background:#e4e4e4;padding:2px;&quot;&gt;client&lt;/div&gt;&lt;table cellspacing=&quot;0&quot; cellpadding=&quot;2&quot; style=&quot;width:100%;font-size:1em;&quot;&gt;&lt;tbody&gt;&lt;tr&gt;&lt;td&gt;PK&lt;/td&gt;&lt;td&gt;client_id&lt;/td&gt;&lt;/tr&gt;&lt;tr&gt;&lt;td&gt;FK1&lt;/td&gt;&lt;td&gt;branch_id&lt;/td&gt;&lt;/tr&gt;&lt;tr&gt;&lt;td&gt;&lt;/td&gt;&lt;td&gt;name&lt;br&gt;assigned_to&lt;br&gt;&lt;/td&gt;&lt;/tr&gt;&lt;/tbody&gt;&lt;/table&gt;" style="verticalAlign=top;align=left;overflow=fill;html=1;whiteSpace=wrap;fontFamily=Times New Roman;" vertex="1" parent="5T-tb7UuQwm3oBfK2JVE-77">
          <mxGeometry x="6" y="21" width="161" height="72" as="geometry" />
        </mxCell>
        <mxCell id="5T-tb7UuQwm3oBfK2JVE-78" style="edgeStyle=elbowEdgeStyle;rounded=0;orthogonalLoop=1;jettySize=auto;html=1;startArrow=none;endArrow=none;entryX=0.004;entryY=0.068;entryDx=0;entryDy=0;entryPerimeter=0;" edge="1" parent="WIyWlLk6GJQsqaUBKTNV-1" source="5T-tb7UuQwm3oBfK2JVE-25" target="5T-tb7UuQwm3oBfK2JVE-55">
          <mxGeometry relative="1" as="geometry" />
        </mxCell>
        <mxCell id="5T-tb7UuQwm3oBfK2JVE-79" style="edgeStyle=elbowEdgeStyle;rounded=0;orthogonalLoop=1;jettySize=auto;html=1;startArrow=none;endArrow=none;exitX=1;exitY=0.5;exitDx=0;exitDy=0;entryX=0.01;entryY=0.047;entryDx=0;entryDy=0;entryPerimeter=0;" edge="1" parent="WIyWlLk6GJQsqaUBKTNV-1">
          <mxGeometry relative="1" as="geometry">
            <mxPoint x="211.36" y="-462.6500000000002" as="sourcePoint" />
            <mxPoint x="527.0000000000001" y="-487.00199999999984" as="targetPoint" />
            <Array as="points">
              <mxPoint x="512" y="-474" />
            </Array>
          </mxGeometry>
        </mxCell>
        <mxCell id="5T-tb7UuQwm3oBfK2JVE-10" value="EmployeeRecords (Panel)" style="shape=umlFrame;whiteSpace=wrap;html=1;pointerEvents=0;width=155;height=23;fontFamily=Times New Roman;movable=1;resizable=1;rotatable=1;deletable=1;editable=1;locked=0;connectable=1;" vertex="1" parent="WIyWlLk6GJQsqaUBKTNV-1">
          <mxGeometry x="315" y="-701" width="280" height="127" as="geometry" />
        </mxCell>
        <mxCell id="5T-tb7UuQwm3oBfK2JVE-49" value="addEmployeeAction()" style="html=1;whiteSpace=wrap;fontFamily=Times New Roman;" vertex="1" parent="WIyWlLk6GJQsqaUBKTNV-1">
          <mxGeometry x="461" y="-667.001746031746" width="123" height="23.476190476190474" as="geometry" />
        </mxCell>
        <mxCell id="5T-tb7UuQwm3oBfK2JVE-50" value="&lt;div style=&quot;box-sizing:border-box;width:100%;background:#e4e4e4;padding:2px;&quot;&gt;employee&lt;/div&gt;&lt;table cellspacing=&quot;0&quot; cellpadding=&quot;2&quot; style=&quot;width:100%;font-size:1em;&quot;&gt;&lt;tbody&gt;&lt;tr&gt;&lt;td&gt;PK&lt;/td&gt;&lt;td&gt;emp_id&lt;/td&gt;&lt;/tr&gt;&lt;tr&gt;&lt;td&gt;FK1&lt;/td&gt;&lt;td&gt;branch_id&lt;/td&gt;&lt;/tr&gt;&lt;tr&gt;&lt;td&gt;&lt;/td&gt;&lt;td&gt;salary&lt;br&gt;role&lt;br&gt;&lt;br&gt;&lt;/td&gt;&lt;/tr&gt;&lt;/tbody&gt;&lt;/table&gt;" style="verticalAlign=top;align=left;overflow=fill;html=1;whiteSpace=wrap;fontFamily=Times New Roman;" vertex="1" parent="WIyWlLk6GJQsqaUBKTNV-1">
          <mxGeometry x="324" y="-671.54" width="125" height="92.98" as="geometry" />
        </mxCell>
        <mxCell id="5T-tb7UuQwm3oBfK2JVE-81" value="" style="group" vertex="1" connectable="0" parent="WIyWlLk6GJQsqaUBKTNV-1">
          <mxGeometry x="527" y="-498" width="164" height="184" as="geometry" />
        </mxCell>
        <mxCell id="5T-tb7UuQwm3oBfK2JVE-60" value="BranchRecords (Panel)" style="shape=umlFrame;whiteSpace=wrap;html=1;pointerEvents=0;width=155;height=23;fontFamily=Times New Roman;movable=1;resizable=1;rotatable=1;deletable=1;editable=1;locked=0;connectable=1;" vertex="1" parent="5T-tb7UuQwm3oBfK2JVE-81">
          <mxGeometry width="164" height="184" as="geometry" />
        </mxCell>
        <mxCell id="5T-tb7UuQwm3oBfK2JVE-61" value="&lt;div style=&quot;box-sizing:border-box;width:100%;background:#e4e4e4;padding:2px;&quot;&gt;branch&lt;/div&gt;&lt;table cellspacing=&quot;0&quot; cellpadding=&quot;2&quot; style=&quot;width:100%;font-size:1em;&quot;&gt;&lt;tbody&gt;&lt;tr&gt;&lt;td&gt;PK&lt;/td&gt;&lt;td&gt;branch_id&lt;/td&gt;&lt;/tr&gt;&lt;tr&gt;&lt;td&gt;PK&lt;/td&gt;&lt;td&gt;branch_name&lt;/td&gt;&lt;/tr&gt;&lt;tr&gt;&lt;td&gt;&lt;/td&gt;&lt;td&gt;&lt;br&gt;&lt;/td&gt;&lt;/tr&gt;&lt;/tbody&gt;&lt;/table&gt;" style="verticalAlign=top;align=left;overflow=fill;html=1;whiteSpace=wrap;fontFamily=Times New Roman;" vertex="1" parent="5T-tb7UuQwm3oBfK2JVE-81">
          <mxGeometry x="12" y="32" width="114" height="62" as="geometry" />
        </mxCell>
        <mxCell id="5T-tb7UuQwm3oBfK2JVE-66" value="&lt;div style=&quot;box-sizing:border-box;width:100%;background:#e4e4e4;padding:2px;&quot;&gt;department&lt;/div&gt;&lt;table cellspacing=&quot;0&quot; cellpadding=&quot;2&quot; style=&quot;width:100%;font-size:1em;&quot;&gt;&lt;tbody&gt;&lt;tr&gt;&lt;td&gt;PK&lt;/td&gt;&lt;td&gt;id_prefix&lt;/td&gt;&lt;/tr&gt;&lt;tr&gt;&lt;td&gt;&lt;br&gt;&lt;/td&gt;&lt;td&gt;name&lt;/td&gt;&lt;/tr&gt;&lt;tr&gt;&lt;td&gt;&lt;/td&gt;&lt;td&gt;assigned_to&lt;br&gt;&lt;/td&gt;&lt;/tr&gt;&lt;/tbody&gt;&lt;/table&gt;" style="verticalAlign=top;align=left;overflow=fill;html=1;whiteSpace=wrap;fontFamily=Times New Roman;" vertex="1" parent="5T-tb7UuQwm3oBfK2JVE-81">
          <mxGeometry x="12" y="102" width="113" height="77" as="geometry" />
        </mxCell>
        <mxCell id="5T-tb7UuQwm3oBfK2JVE-82" value="" style="group" vertex="1" connectable="0" parent="WIyWlLk6GJQsqaUBKTNV-1">
          <mxGeometry x="311" y="-451" width="149" height="95" as="geometry" />
        </mxCell>
        <mxCell id="5T-tb7UuQwm3oBfK2JVE-55" value="ClientRecords (Panel)" style="shape=umlFrame;whiteSpace=wrap;html=1;pointerEvents=0;width=125;height=17;fontFamily=Times New Roman;movable=1;resizable=1;rotatable=1;deletable=1;editable=1;locked=0;connectable=1;" vertex="1" parent="5T-tb7UuQwm3oBfK2JVE-82">
          <mxGeometry width="149" height="95" as="geometry" />
        </mxCell>
        <mxCell id="5T-tb7UuQwm3oBfK2JVE-57" value="&lt;div style=&quot;box-sizing:border-box;width:100%;background:#e4e4e4;padding:2px;&quot;&gt;client&lt;/div&gt;&lt;table cellspacing=&quot;0&quot; cellpadding=&quot;2&quot; style=&quot;width:100%;font-size:1em;&quot;&gt;&lt;tbody&gt;&lt;tr&gt;&lt;td&gt;PK&lt;/td&gt;&lt;td&gt;client_id&lt;/td&gt;&lt;/tr&gt;&lt;tr&gt;&lt;td&gt;FK1&lt;/td&gt;&lt;td&gt;branch_id&lt;/td&gt;&lt;/tr&gt;&lt;tr&gt;&lt;td&gt;&lt;/td&gt;&lt;td&gt;name&lt;br&gt;assigned_to&lt;br&gt;&lt;/td&gt;&lt;/tr&gt;&lt;/tbody&gt;&lt;/table&gt;" style="verticalAlign=top;align=left;overflow=fill;html=1;whiteSpace=wrap;fontFamily=Times New Roman;" vertex="1" parent="5T-tb7UuQwm3oBfK2JVE-82">
          <mxGeometry x="3" y="24" width="130" height="62.73" as="geometry" />
        </mxCell>
      </root>
    </mxGraphModel>
  </diagram>
</mxfile>
